<?xml version="1.0" encoding="UTF-8"?>
<svg version="1.1" xmlns="http://www.w3.org/2000/svg" width="1536" height="1024">
<path d="M0 0 C506.88 0 1013.76 0 1536 0 C1536 337.92 1536 675.84 1536 1024 C1029.12 1024 522.24 1024 0 1024 C0 686.08 0 348.16 0 0 Z " fill="#FDFDFD" transform="translate(0,0)"/>
<path d="M0 0 C0.73041504 -0.02143066 1.46083008 -0.04286133 2.21337891 -0.06494141 C5.23044683 -0.08389019 7.52006592 -0.0104797 10.20040512 1.44424915 C12 3.25 12 3.25 12.49219131 5.61816692 C12.48666056 7.02989288 12.48666056 7.02989288 12.48101807 8.47013855 C12.48651672 9.55127426 12.49201538 10.63240997 12.49768066 11.74630737 C12.47610901 13.52547043 12.47610901 13.52547043 12.45410156 15.34057617 C12.45468567 16.58947128 12.45526978 17.83836639 12.45587158 19.12510681 C12.45356028 22.55081688 12.43348497 25.97556576 12.40557575 29.40110564 C12.38059042 32.98053522 12.37822238 36.55997726 12.37347412 40.13948059 C12.36103583 46.91812056 12.32820293 53.69650285 12.28807616 60.47502929 C12.24338479 68.19196519 12.22137808 75.90891333 12.20129442 83.6259464 C12.15947084 99.50078023 12.08910251 115.3753569 12 131.25 C10.68147537 131.24083557 9.36295074 131.23167114 8.00447083 131.222229 C3.0472985 131.19021971 -1.90986495 131.17034209 -6.86711121 131.15386963 C-9.00040734 131.14514461 -11.13369325 131.13326037 -13.26695251 131.11798096 C-28.94949798 131.00858121 -43.65307652 131.76795084 -59 135.25 C-60.52022785 135.55640498 -62.04104166 135.85992092 -63.5625 136.16015625 C-88.81248004 141.36775051 -113.5163084 152.12656558 -133 169.25 C-133.495 170.24 -133.495 170.24 -134 171.25 C-134.66 171.25 -135.32 171.25 -136 171.25 C-136.09364197 163.96418747 -136.16423333 156.67850953 -136.20724869 149.39221191 C-136.22791829 146.00702305 -136.25584479 142.62225275 -136.30175781 139.23730469 C-136.59375515 115.99775215 -136.20814879 96.46705739 -119.5 78.79296875 C-118.675 77.95378906 -117.85 77.11460937 -117 76.25 C-116.16855469 75.40050781 -115.33710937 74.55101562 -114.48046875 73.67578125 C-111.45278998 70.71485445 -108.23960015 68.02284315 -104.98828125 65.3125 C-100.24769206 60.39495365 -100.70864447 54.97023915 -100.796875 48.5 C-101.04711519 44.49615702 -101.8018912 41.0689718 -103 37.25 C-84.39196201 18.26109574 -57.43312409 8.60434191 -32 3.25 C-30.97648438 3.0334375 -29.95296875 2.816875 -28.8984375 2.59375 C-19.3293498 0.71853973 -9.7318534 0.15940283 0 0 Z " fill="#BBB4A8" transform="translate(910,379.75)"/>
<path d="M0 0 C0.82161621 0.00684814 1.64323242 0.01369629 2.48974609 0.02075195 C20.19807224 0.45492304 38.32568157 3.38814061 55 9.4375 C55.78922852 9.72109375 56.57845703 10.0046875 57.39160156 10.296875 C74.70709303 16.62510727 89.74583568 24.74615632 104 36.4375 C103.125 42.1875 103.125 42.1875 102 44.4375 C101.30972177 51.95167163 100.87933899 58.68868489 105.58203125 64.90625 C107.55923953 67.04141707 109.63148879 68.74570628 112 70.4375 C125.5905922 80.78410662 134.67596996 95.46765596 137 112.4375 C137.61227504 121.88118574 137.40022742 131.36034144 137.2746582 140.81762695 C137.23319176 144.2774064 137.21535538 147.7373075 137.1953125 151.19726562 C137.15285482 157.94430305 137.08490025 164.69086626 137 171.4375 C136.53416 171.03328827 136.06832001 170.62907654 135.58836365 170.21261597 C134.96937698 169.67822906 134.35039032 169.14384216 133.71264648 168.59326172 C133.10243149 168.06529999 132.49221649 167.53733826 131.86351013 166.99337769 C118.49565221 155.83231583 102.31295782 148.18528488 86 142.4375 C84.99324219 142.07914063 83.98648438 141.72078125 82.94921875 141.3515625 C59.28902553 133.1886424 35.32552187 131.21300841 10.49609375 130.8203125 C8.40131307 130.78139652 6.30654548 130.74176902 4.21179199 130.70141602 C-0.85869212 130.6052594 -5.9292547 130.51866706 -11 130.4375 C-11.07003799 113.93058988 -11.12296254 97.42372786 -11.15543652 80.91670513 C-11.17091459 73.25244369 -11.19202196 65.5882745 -11.22631836 57.92407227 C-11.25619207 51.24503116 -11.27556816 44.56605685 -11.28226548 37.88695079 C-11.28618122 34.34940722 -11.29540297 30.81205477 -11.31719017 27.27457237 C-11.34129777 23.32843786 -11.3419713 19.38249142 -11.34057617 15.4362793 C-11.351362 14.25952133 -11.36214783 13.08276337 -11.3732605 11.87034607 C-11.36913651 10.79762451 -11.36501251 9.72490295 -11.36076355 8.61967468 C-11.36352893 7.68589839 -11.36629431 6.7521221 -11.36914349 5.79004955 C-11 3.4375 -11 3.4375 -9.69620228 1.64071369 C-6.78404263 -0.42504839 -3.43906015 -0.04460288 0 0 Z " fill="#DAD4C8" transform="translate(625,379.5625)"/>
<path d="M0 0 C9.08899482 8.5339417 15.06142906 18.90370697 19.18359375 30.58984375 C19.74552107 32.02756771 20.30798717 33.46508125 20.87109375 34.90234375 C27.28241281 52.9150973 22.98477669 74.74443223 15.18359375 91.58984375 C10.70393267 100.08150898 4.47792275 107.29232497 -1.59765625 114.6640625 C-13.32297225 128.91032145 -23.91710273 143.40700509 -26.12890625 162.1796875 C-27.08178056 165.52016165 -27.96709954 166.53465849 -30.81640625 168.58984375 C-34.30910793 169.21260875 -37.7721448 169.173956 -41.3125 169.15625 C-42.33819595 169.16244858 -43.36389191 169.16864716 -44.42066956 169.17503357 C-46.58846081 169.18213304 -48.75630657 169.17895555 -50.92407227 169.16625977 C-54.23881585 169.15240682 -57.5507298 169.18644937 -60.86523438 169.22460938 C-62.97265694 169.2255607 -65.08008304 169.22370104 -67.1875 169.21875 C-68.17721298 169.23200821 -69.16692596 169.24526642 -70.18663025 169.25892639 C-74.87193806 169.19562757 -77.09842782 169.13289243 -80.92675781 166.23730469 C-83.13644257 163.14146211 -83.62167273 161.03087176 -84.12890625 157.27734375 C-87.26368827 140.53515598 -97.77525304 126.21533388 -108.81640625 113.65234375 C-117.31970088 103.97256036 -123.96351414 93.57590257 -128.81640625 81.58984375 C-129.14769531 80.82800781 -129.47898437 80.06617188 -129.8203125 79.28125 C-132.52150139 71.98274356 -133.14460534 65.50248585 -133.06640625 57.77734375 C-133.05818848 56.79757568 -133.0499707 55.81780762 -133.04150391 54.80834961 C-132.70585227 33.15521008 -124.1998374 14.84941474 -108.81640625 -0.41015625 C-97.929234 -10.79537621 -84.66814661 -17.80773649 -69.81640625 -20.41015625 C-67.89828125 -20.75046875 -67.89828125 -20.75046875 -65.94140625 -21.09765625 C-40.46572314 -23.561354 -19.20641539 -16.43600318 0 0 Z M-102.81640625 13.58984375 C-114.71355579 28.98249823 -120.45267196 46.05565926 -118.81640625 65.58984375 C-115.43626014 81.94244249 -106.33713256 94.10904399 -95.64575195 106.42089844 C-83.67404223 120.23844799 -72.18927329 137.08148083 -69.81640625 155.58984375 C-66.84640625 155.58984375 -63.87640625 155.58984375 -60.81640625 155.58984375 C-60.61760488 149.4885533 -60.47299238 143.38917502 -60.37695312 137.28540039 C-60.33689347 135.21247492 -60.28242683 133.13977306 -60.21289062 131.06762695 C-59.17726581 117.66230542 -59.17726581 117.66230542 -64.55859375 106.03125 C-65.94759582 104.84764423 -67.3643142 103.69513921 -68.81640625 102.58984375 C-71.14163158 99.8067279 -73.41976868 96.99169384 -75.6953125 94.16796875 C-77.52600388 91.94281901 -79.42464795 89.83004096 -81.37890625 87.71484375 C-83.81640625 84.58984375 -83.81640625 84.58984375 -84.31640625 81.77734375 C-83.81640625 79.58984375 -83.81640625 79.58984375 -81.81640625 77.58984375 C-79.46875 77.18359375 -79.46875 77.18359375 -76.81640625 77.58984375 C-74.5703125 79.49609375 -74.5703125 79.49609375 -72.37890625 82.08984375 C-71.6003125 83.00378906 -70.82171875 83.91773438 -70.01953125 84.859375 C-67.68187559 87.75657589 -65.42356488 90.69351768 -63.22265625 93.6953125 C-61.7348855 95.69967032 -60.20898578 97.65734452 -58.62890625 99.58984375 C-58.16097656 100.16734375 -57.69304687 100.74484375 -57.2109375 101.33984375 C-55.75621189 102.92357638 -55.75621189 102.92357638 -52.81640625 102.58984375 C-50.81728724 100.58041227 -50.81728724 100.58041227 -48.81640625 97.90234375 C-48.0275 96.91105469 -47.23859375 95.91976562 -46.42578125 94.8984375 C-46.00490234 94.36460449 -45.58402344 93.83077148 -45.15039062 93.28076172 C-42.8148938 90.32035707 -40.45535555 87.38227485 -38.06640625 84.46484375 C-37.61910156 83.89677002 -37.17179688 83.32869629 -36.7109375 82.7434082 C-34.6610758 80.25369301 -33.17002544 78.71964039 -30.11328125 77.59765625 C-29.3553125 77.59507812 -28.59734375 77.5925 -27.81640625 77.58984375 C-25.81640625 79.58984375 -25.81640625 79.58984375 -25.4453125 82.421875 C-25.90514354 86.34738001 -26.99576706 87.50034549 -29.75390625 90.27734375 C-33.96387874 94.67295283 -37.8503293 99.216993 -41.67578125 103.94921875 C-43.81640625 106.58984375 -43.81640625 106.58984375 -46.41967773 109.13037109 C-49.8364329 113.25247064 -49.45062071 117.43829144 -49.3046875 122.58203125 C-49.29761276 123.5279715 -49.29053802 124.47391174 -49.2832489 125.44851685 C-49.25537315 128.45478087 -49.19264741 131.45914756 -49.12890625 134.46484375 C-49.10381457 136.50908759 -49.08100292 138.55336077 -49.06054688 140.59765625 C-49.00556873 145.59577748 -48.91934326 150.5924895 -48.81640625 155.58984375 C-45.84640625 155.58984375 -42.87640625 155.58984375 -39.81640625 155.58984375 C-39.40390625 154.23632812 -38.99140625 152.8828125 -38.56640625 151.48828125 C-32.65217641 132.60443196 -23.91932782 117.55522633 -10.62890625 102.90234375 C2.83381119 88.02821239 9.95636277 71.10880424 9.51953125 50.953125 C8.62370904 34.35820364 -0.78596012 18.62748607 -12.81640625 7.58984375 C-16.33502621 4.95345842 -19.97813425 2.72768471 -23.81640625 0.58984375 C-24.61820313 0.11675781 -25.42 -0.35632813 -26.24609375 -0.84375 C-51.34094018 -14.70762418 -84.14193892 -7.4504767 -102.81640625 13.58984375 Z " fill="#F5BD40" transform="translate(822.81640625,247.41015625)"/>
<path d="M0 0 C0 37.29 0 74.58 0 113 C7.425 112.01 7.425 112.01 15 111 C20.04940866 110.77108638 25.01615091 110.61866435 30.0625 110.625 C31.07923798 110.62481873 31.07923798 110.62481873 32.11651611 110.62463379 C47.29087219 110.66254874 62.03987374 112.43449067 77 115 C77.89380371 115.14953125 78.78760742 115.2990625 79.70849609 115.453125 C106.07754276 120.03443534 137.56489369 132.6155355 154.6640625 154.08984375 C155.79811807 155.71134426 156.90240179 157.35360269 158 159 C160.88861709 160.44430855 162.79647701 160.37688506 166 160 C168.48107326 157.96424758 170.4089738 155.73837345 172.41015625 153.23828125 C193.40902412 127.80230617 231.3892712 115.67089268 263.13623047 112.47900391 C265.08971321 112.30631774 267.04486424 112.15283802 269 112 C270.17691406 111.89042969 271.35382813 111.78085937 272.56640625 111.66796875 C287.22889325 110.46084853 302.0691918 110.60566248 316.75 111.4375 C317.44657715 111.47665527 318.1431543 111.51581055 318.86083984 111.55615234 C321.78353667 111.74854172 324.204815 112.06827167 327 113 C327 75.71 327 38.42 327 0 C336 0 336 0 338.53159523 1.18170071 C340.48315012 3.59827613 340.49815351 4.99982713 340.49447632 8.0927887 C340.5028653 9.14579163 340.51125427 10.19879456 340.51989746 11.28370667 C340.50865845 12.43862106 340.49741943 13.59353546 340.48583984 14.78344727 C340.48963654 15.99986908 340.49343323 17.21629089 340.49734497 18.46957397 C340.50349106 21.80656945 340.49173116 25.14257671 340.47143888 28.47945523 C340.45388201 31.96855141 340.45739267 35.45763074 340.4581604 38.94676208 C340.45628707 44.8053381 340.43891782 50.66370698 340.41162109 56.5222168 C340.3801552 63.30068089 340.36962537 70.07891822 340.3710922 76.85745007 C340.37231184 83.37310221 340.36211036 89.88868031 340.34550858 96.40431023 C340.33843804 99.17979446 340.33478139 101.95525251 340.33372116 104.73074532 C340.33134366 108.60256125 340.3119385 112.47418754 340.29052734 116.34594727 C340.29143372 117.50288589 340.29234009 118.65982452 340.29327393 119.8518219 C340.28474396 120.902005 340.27621399 121.95218811 340.26742554 123.03419495 C340.26407385 123.95024789 340.26072216 124.86630083 340.25726891 125.81011295 C340 128 340 128 338 130 C335.53125 130.23046875 335.53125 130.23046875 332.5 130.1875 C331.03046875 130.17783203 331.03046875 130.17783203 329.53125 130.16796875 C326.78886352 130.03752338 324.13122017 129.80667906 321.40722656 129.50219727 C316.24665509 128.97882137 311.13750472 128.82238523 305.953125 128.796875 C305.02062927 128.79117493 304.08813354 128.78547485 303.12738037 128.77960205 C301.16094065 128.77021561 299.19448565 128.7636436 297.22802734 128.75976562 C294.2988534 128.7501602 291.37041326 128.71911687 288.44140625 128.6875 C245.62782077 128.44694134 205.37063004 141.02802318 170 165 C166.24477469 166.87761265 162.08929064 166.52210022 158 166 C154.83785049 164.7246959 152.17087912 162.93568157 149.375 161 C147.80795654 159.98063396 146.23757435 158.9663839 144.6640625 157.95703125 C143.88450195 157.45381348 143.10494141 156.9505957 142.30175781 156.43212891 C136.46587927 152.80110817 130.22869804 149.88780694 124 147 C123.39172363 146.71785645 122.78344727 146.43571289 122.15673828 146.14501953 C92.95495036 132.76973367 61.97551476 128.72826228 30.1875 128.75 C29.21666473 128.75059418 28.24582947 128.75118835 27.24557495 128.75180054 C24.4279148 128.75837975 21.6105483 128.77493109 18.79296875 128.796875 C17.95509827 128.8012709 17.11722778 128.80566681 16.25396729 128.81019592 C11.18461033 128.86965041 6.20567851 129.21213685 1.16670227 129.77198792 C-1.55908867 130.05883548 -4.25984446 130.16758608 -7 130.1875 C-7.9075 130.20167969 -8.815 130.21585938 -9.75 130.23046875 C-12 130 -12 130 -14 128 C-14.26006222 125.82852364 -14.26006222 125.82852364 -14.27415466 123.07888794 C-14.28412979 122.03856415 -14.29410492 120.99824036 -14.30438232 119.9263916 C-14.305047 118.78037476 -14.30571167 117.63435791 -14.30639648 116.45361328 C-14.31472 115.25030365 -14.32304352 114.04699402 -14.33161926 112.80722046 C-14.35162873 109.50131957 -14.36236766 106.19567092 -14.36744571 102.88973093 C-14.37108557 100.82495299 -14.3773237 98.76019942 -14.3844471 96.69543076 C-14.40895411 89.49372032 -14.421996 82.29208203 -14.42553711 75.09033203 C-14.42917256 68.37483483 -14.45906479 61.65979464 -14.50094169 54.94443715 C-14.53562192 49.18130871 -14.55108516 43.41833186 -14.55178314 37.65509975 C-14.55257681 34.21190358 -14.56135505 30.7691726 -14.58978081 27.32608414 C-14.62077724 23.48560099 -14.61191265 19.64577577 -14.59936523 15.80517578 C-14.61419952 14.6632074 -14.62903381 13.52123901 -14.64431763 12.34466553 C-14.57384933 4.79550873 -14.57384933 4.79550873 -12.02503967 1.26217651 C-9 0 -9 0 0 0 Z " fill="#454645" transform="translate(605,408)"/>
<path d="M0 0 C3.3 0 6.6 0 10 0 C10 24.75 10 49.5 10 75 C6.7 75 3.4 75 0 75 C-0.33 73.02 -0.66 71.04 -1 69 C-1.66 69.598125 -2.32 70.19625 -3 70.8125 C-9.18355516 75.3213423 -15.38640782 76.94522488 -23 76 C-30.64354228 74.3675216 -35.46868382 71.3047739 -40.25 65.0625 C-44.91043496 56.90673883 -45.65615377 46.53536127 -43.34765625 37.42578125 C-40.10209802 30.3356991 -34.13971651 24.93176765 -27 22 C-18.51355674 20.97386144 -11.172164 21.17258192 -4 26 C-3.01 26.99 -2.02 27.98 -1 29 C-0.67 19.43 -0.34 9.86 0 0 Z " fill="#454545" transform="translate(720,644)"/>
<path d="M0 0 C11 0 11 0 14.78515625 3.48046875 C15.91339045 5.02394655 17.00462596 6.59497413 18.0625 8.1875 C18.65482422 9.0125 19.24714844 9.8375 19.85742188 10.6875 C21.048914 12.34758545 22.2271286 14.01729027 23.39111328 15.69677734 C25.49854484 18.71369834 27.73339675 21.6006832 30 24.5 C31.16402344 26.01787109 31.16402344 26.01787109 32.3515625 27.56640625 C34.41640951 30.25135415 36.49908172 32.92196971 38.5859375 35.58984375 C39.21242188 36.39164063 39.83890625 37.1934375 40.484375 38.01953125 C41.71433733 39.59256159 42.94601809 41.1642503 44.1796875 42.734375 C44.746875 43.46011719 45.3140625 44.18585937 45.8984375 44.93359375 C46.65133057 45.8935022 46.65133057 45.8935022 47.41943359 46.87280273 C49.37938415 49.51059223 51.17712487 52.26568731 53 55 C53.33 36.85 53.66 18.7 54 0 C57.63 0 61.26 0 65 0 C65 24.42 65 48.84 65 74 C53 74 53 74 50.421875 72.11328125 C49.59429688 70.72689453 49.59429688 70.72689453 48.75 69.3125 C47.68265625 67.6728125 47.68265625 67.6728125 46.59375 66 C45.99820313 65.05833984 45.99820313 65.05833984 45.390625 64.09765625 C42.56846417 59.84063275 39.36936533 55.8536376 36.25 51.8125 C34.864889 49.99815609 33.48077567 48.1830501 32.09765625 46.3671875 C27.7605126 40.68459825 23.41930107 35.00511981 19.07324219 29.3293457 C18.57856445 28.68312256 18.08388672 28.03689941 17.57421875 27.37109375 C17.14713623 26.81349365 16.72005371 26.25589355 16.2800293 25.68139648 C14.84380499 23.79482834 13.4226302 21.89684026 12 20 C11.67 37.82 11.34 55.64 11 74 C7.37 74 3.74 74 0 74 C0 49.58 0 25.16 0 0 Z " fill="#474747" transform="translate(803,645)"/>
<path d="M0 0 C6.43796545 4.05933662 10.68263803 9.75907506 13.02734375 16.93359375 C13.6361756 20.74314163 13.4375 24.64210792 13.4375 28.5 C-0.4225 28.5 -14.2825 28.5 -28.5625 28.5 C-25.08061562 37.06485885 -25.08061562 37.06485885 -18.7109375 41.9453125 C-12.36891829 43.58270655 -5.91875498 43.56495588 -0.0625 40.5 C0.5253125 40.12875 1.113125 39.7575 1.71875 39.375 C3.4375 38.5 3.4375 38.5 7.4375 38.5 C9.6875 41 9.6875 41 11.4375 43.5 C3.59028248 50.7435854 -3.41738636 53.23073564 -14.19140625 52.8828125 C-22.00796421 51.99518483 -28.27303154 48.27032923 -33.5625 42.5 C-39.07162356 34.9312345 -39.34377431 26.57818745 -38.5625 17.5 C-37.68364615 14.44158859 -36.39722897 12.0868539 -34.5625 9.5 C-34.12679687 8.87351562 -33.69109375 8.24703125 -33.2421875 7.6015625 C-25.58853216 -2.31054852 -11.55518966 -5.06528862 0 0 Z " fill="#474747" transform="translate(919.5625,667.5)"/>
<path d="M0 0 C-1.37154504 2.95409701 -2.98863724 5.44008376 -5 8 C-7.76501836 6.9427871 -10.3711414 5.80669719 -13 4.4375 C-18.76462157 1.6752855 -24.68166711 1.42376804 -31 2 C-35.11275909 3.54228466 -36.55780938 4.33671407 -39 8 C-39.51884083 12.0024864 -39.6108421 14.13747462 -37.24609375 17.4765625 C-33.01575208 21.43589205 -27.05476981 22.46114819 -21.625 24 C-5.50078881 28.60157303 -5.50078881 28.60157303 0.4375 36.0625 C2.95939511 41.0843607 2.83342637 46.55011623 2 52 C-0.6793227 58.9320349 -5.89459873 63.30081817 -12.3125 66.8125 C-22.3745187 70.15363097 -34.00081068 68.98021209 -43.39453125 64.4453125 C-47.03644557 62.42506018 -50.54376166 60.32631427 -54 58 C-52.58208437 55.06553114 -51.01667393 52.56667591 -49 50 C-45.02372114 50.78105478 -42.32153674 52.6120925 -39 54.84375 C-34.71159062 57.32298667 -30.5178844 57.19140258 -25.625 57.25 C-24.33851563 57.27578125 -23.05203125 57.3015625 -21.7265625 57.328125 C-17.72943414 56.97617659 -15.37603065 56.13118159 -12 54 C-9.85708981 50.78563471 -9.69974209 48.82573391 -9.5390625 45.03515625 C-10.21340807 42.05774912 -11.66558019 40.91215275 -14 39 C-16.37407374 37.77999756 -16.37407374 37.77999756 -19 36.9375 C-19.96808594 36.60363281 -20.93617188 36.26976562 -21.93359375 35.92578125 C-24.95875424 35.01245254 -27.97763865 34.30565973 -31.0625 33.625 C-38.08426852 31.92662686 -45.2966518 29.0365361 -49.625 22.9375 C-52.33851206 17.09500992 -52.23757968 9.56445761 -50.15234375 3.55859375 C-47.34217772 -1.46160115 -43.23428414 -4.69017386 -38 -7 C-24.4990912 -10.67564009 -11.12056067 -8.19409733 0 0 Z " fill="#464646" transform="translate(563,652)"/>
<path d="M0 0 C3.63 0 7.26 0 11 0 C11.41362793 1.00901367 11.82725586 2.01802734 12.25341797 3.05761719 C13.79126486 6.80792528 15.33112211 10.55740517 16.87158203 14.30664062 C17.53749406 15.92816071 18.20286373 17.54990363 18.86767578 19.171875 C19.82441327 21.50579964 20.78311069 23.83891085 21.7421875 26.171875 C22.03809784 26.89493835 22.33400818 27.61800171 22.6388855 28.36297607 C23.98621852 31.63538192 25.3488981 34.86786678 27 38 C31.23402312 30.03403939 34.57189724 21.77927148 37.8125 13.375 C38.3192222 12.07144375 38.82638097 10.76805712 39.33398438 9.46484375 C40.56027337 6.31152919 41.78216686 3.1565877 43 0 C46.63 0 50.26 0 54 0 C49.85847525 11.3737684 45.31407949 22.52081464 40.5 33.625 C39.53498852 35.86160755 38.57102119 38.09866277 37.60723877 40.33580017 C36.97821724 41.79312489 36.34734603 43.24965276 35.71453857 44.70533752 C34.22246943 48.14024702 32.75415075 51.58080661 31.34472656 55.05053711 C31.08268433 55.68716278 30.82064209 56.32378845 30.55065918 56.97970581 C29.84771077 58.6925378 29.1553698 60.40971247 28.46386719 62.12719727 C25.92908746 67.10163907 21.96033564 70.51983218 17 73 C15.18958207 73.09632897 13.37547247 73.12981533 11.5625 73.125 C10.59441406 73.12757813 9.62632812 73.13015625 8.62890625 73.1328125 C6 73 6 73 3 72 C3.875 66.25 3.875 66.25 5 64 C7.51963422 63.64327759 10.01333243 63.55624883 12.5546875 63.44140625 C15.39760028 62.9282287 16.24970653 62.24648258 18 60 C19.96791507 56.16774434 20.36509952 53.27849097 20 49 C18.93117293 45.72578691 17.53879427 42.61434377 16.1328125 39.47265625 C15.73802704 38.56551376 15.34324158 37.65837128 14.93649292 36.72373962 C13.67624299 33.83204684 12.40151024 30.94704719 11.125 28.0625 C9.85791755 25.18059833 8.59403641 22.29736772 7.33493042 19.41197205 C6.55210141 17.61996712 5.76436084 15.8300972 4.97097778 14.04273987 C2.93890294 9.41147376 1.25515357 4.90121355 0 0 Z " fill="#454545" transform="translate(739,667)"/>
<path d="M0 0 C3.3 0 6.6 0 10 0 C10.01458252 1.09465576 10.02916504 2.18931152 10.04418945 3.31713867 C10.10228739 7.38956905 10.17951927 11.46145315 10.26245117 15.53344727 C10.29564654 17.29377355 10.32369524 19.05420488 10.34643555 20.81469727 C10.3800812 23.34957525 10.4324006 25.88349523 10.48828125 28.41796875 C10.49467117 29.20149216 10.5010611 29.98501556 10.50764465 30.7922821 C10.62950849 35.35053517 11.17969977 38.36869539 14 42 C18.02629501 44.71158644 22.31113282 44.66751234 27 44 C32.11762818 41.34641502 35.17705942 38.46882174 37 33 C37.15269181 30.56219623 37.25682697 28.14716099 37.31640625 25.70703125 C37.33718735 25.00100266 37.35796844 24.29497406 37.37937927 23.56755066 C37.44467491 21.31596449 37.50366647 19.06426338 37.5625 16.8125 C37.60570425 15.2844934 37.64931916 13.75649836 37.69335938 12.22851562 C37.80033574 8.48579438 37.90165922 4.7429577 38 1 C41.3 1 44.6 1 48 1 C48 18.16 48 35.32 48 53 C44.37 53 40.74 53 37 53 C36.505 50.03 36.505 50.03 36 47 C35.0925 47.78375 34.185 48.5675 33.25 49.375 C28.21149855 53.72643307 24.33570384 54.38536692 17.75390625 54.25390625 C11.89292419 53.71353202 7.16867994 51.16867994 3 47 C0.01048683 41.37773573 -0.40927345 36.86709508 -0.29296875 30.56640625 C-0.28872391 29.68846909 -0.28447906 28.81053192 -0.28010559 27.9059906 C-0.2634229 25.1245042 -0.22579085 22.34376436 -0.1875 19.5625 C-0.17243968 17.66732823 -0.15875364 15.77214502 -0.14648438 13.87695312 C-0.1135536 9.25101803 -0.06184428 4.62563523 0 0 Z " fill="#454646" transform="translate(616,666)"/>
<path d="M0 0 C0.99 0.66 1.98 1.32 3 2 C1.125 6.75 1.125 6.75 0 9 C-0.87398437 8.67515625 -0.87398437 8.67515625 -1.765625 8.34375 C-8.49217205 6.05926232 -14.90318076 5.16825711 -22 6 C-22.99 6.66 -23.98 7.32 -25 8 C-25.2502157 11.08365871 -25.2502157 11.08365871 -25 14 C-20.55440616 16.06771807 -16.15112959 17.57302828 -11.4375 18.9375 C-4.82314002 20.93471777 0.21326333 22.92834857 4 29 C4.85071648 34.07364243 4.57781273 38.6433962 2.5625 43.375 C-2.96146795 49.03369888 -7.89973301 51.3089005 -15.875 51.5625 C-23.62563236 51.26085377 -31.4605987 49.86492278 -37.1875 44.25 C-37.785625 43.5075 -38.38375 42.765 -39 42 C-37.35 40.02 -35.7 38.04 -34 36 C-33.46890625 36.27714844 -32.9378125 36.55429687 -32.390625 36.83984375 C-31.68421875 37.20207031 -30.9778125 37.56429687 -30.25 37.9375 C-29.20585938 38.47697266 -29.20585938 38.47697266 -28.140625 39.02734375 C-24.07814549 40.87325141 -20.45203466 41.18321948 -16 41.25 C-14.96875 41.27578125 -13.9375 41.3015625 -12.875 41.328125 C-9.67117675 40.96247126 -8.34912279 40.14583332 -6 38 C-6.495 35.03 -6.495 35.03 -7 32 C-7.66644531 31.75765625 -8.33289063 31.5153125 -9.01953125 31.265625 C-10.96211873 30.55922955 -12.90343563 29.84933421 -14.84375 29.13671875 C-16.87615712 28.40475035 -18.91752456 27.69697544 -20.96875 27.01953125 C-26.6377339 25.11170013 -30.79623545 23.31438993 -35 19 C-36.78438576 13.64684273 -36.85857691 8.82018305 -34.4375 3.6875 C-25.95755365 -5.66218444 -10.99758219 -5.51143199 0 0 Z " fill="#474747" transform="translate(979,669)"/>
<path d="M0 0 C3.63 0 7.26 0 11 0 C11 5.28 11 10.56 11 16 C14.4340625 15.9690625 14.4340625 15.9690625 17.9375 15.9375 C20.29166332 15.91629132 22.64686445 15.92728259 25 16 C26 17 26 17 26.09765625 18.84765625 C26.06510417 20.8984375 26.03255208 22.94921875 26 25 C21.05 25 16.1 25 11 25 C11.09683952 29.66358737 11.19950359 34.32626504 11.31738281 38.98925781 C11.35570585 40.57609138 11.39055288 42.16301281 11.421875 43.75 C11.46745431 46.02896566 11.52545838 48.30732468 11.5859375 50.5859375 C11.59748871 51.29744965 11.60903992 52.00896179 11.62094116 52.74203491 C11.63408239 56.82103657 11.63408239 56.82103657 14 60 C18.13997567 60.1971417 21.07703567 60.30765478 25 59 C26.17271259 61.48339136 27 63.42067875 27 66.1875 C26 68 26 68 23.4375 69.25 C16.45391041 70.77369227 11.27229852 70.61863376 5 67 C0.90308872 62.13273718 0.44371002 58.60943136 0.609375 52.5390625 C0.61503479 51.74849457 0.62069458 50.95792664 0.62652588 50.1434021 C0.64878513 47.63663273 0.69895847 45.13133187 0.75 42.625 C0.77007867 40.9179895 0.78832704 39.21095643 0.8046875 37.50390625 C0.84861516 33.33537804 0.91756704 29.16793736 1 25 C-1.97 25 -4.94 25 -8 25 C-8 22.03 -8 19.06 -8 16 C-5.36 16 -2.72 16 0 16 C0 10.72 0 5.44 0 0 Z " fill="#484949" transform="translate(579,650)"/>
<path d="M0 0 C3.63 0 7.26 0 11 0 C11 5.28 11 10.56 11 16 C15.62 16 20.24 16 25 16 C25 18.97 25 21.94 25 25 C20.05 25 15.1 25 10 25 C10.11989777 29.50254384 10.24254868 34.00483485 10.37231445 38.50708008 C10.41561833 40.03861018 10.45729667 41.57018715 10.49731445 43.10180664 C10.55512732 45.30369182 10.61878969 47.50534211 10.68359375 49.70703125 C10.70030624 50.39150833 10.71701874 51.07598541 10.73423767 51.78120422 C10.8273555 54.77120104 11.04687437 57.14062311 12 60 C16.51617599 60.07654536 20.59085217 60.10228696 25 59 C25.495 62.96 25.495 62.96 26 67 C21.84276459 70.7494683 18.30957477 70.49603915 12.91796875 70.3515625 C8.99460319 69.87886785 6.85721844 68.71069442 4 66 C0.38338909 60.88686044 -0.14231755 56.60043084 -0.09765625 50.48828125 C-0.0962413 49.76005661 -0.09482635 49.03183197 -0.09336853 48.28153992 C-0.08777659 45.95848461 -0.07522562 43.63552612 -0.0625 41.3125 C-0.05748396 39.73632952 -0.05292123 38.16015752 -0.04882812 36.58398438 C-0.0378098 32.72261902 -0.02055074 28.86132592 0 25 C-2.64 25 -5.28 25 -8 25 C-8 22.03 -8 19.06 -8 16 C-5.36 16 -2.72 16 0 16 C0 10.72 0 5.44 0 0 Z " fill="#4B4B4B" transform="translate(999,650)"/>
<path d="M0 0 C3.99495782 3.34461585 7.43237866 6.67691905 7.9609375 12.0078125 C8.15438336 18.42128693 8.19713808 23.41411645 4.2265625 28.66015625 C0.21042153 32.80880948 -3.46004227 34.46616817 -9.25 34.8125 C-14.59993465 34.58414913 -18.3150146 32.75740907 -22.3125 29.25 C-26.77881426 23.48701385 -27.11889559 16.31447966 -26.3125 9.25 C-23.92310179 4.37930366 -20.62789963 1.39664556 -16.3125 -1.75 C-10.71728416 -3.6455221 -5.12903856 -2.70968075 0 0 Z " fill="#FAFAFA" transform="translate(712.3125,676.75)"/>
<path d="M0 0 C1.00208496 -0.0038269 2.00416992 -0.00765381 3.03662109 -0.01159668 C5.15137743 -0.01431382 7.26616749 -0.00696657 9.38085938 0.00976562 C12.61404494 0.03117745 15.84500838 0.00995657 19.078125 -0.015625 C21.13542156 -0.01298169 23.19271674 -0.00785665 25.25 0 C26.21470215 -0.00809692 27.1794043 -0.01619385 28.17333984 -0.02453613 C32.47387047 0.03541693 34.97778211 0.14754805 38.73828125 2.37695312 C40.625 4.53125 40.625 4.53125 41.1875 7.53125 C40.46615521 11.37842222 39.84232249 12.27912426 36.625 14.53125 C33.04579889 15.14101028 29.49842183 15.0913553 25.875 15.0625 C24.29960449 15.06824036 24.29960449 15.06824036 22.69238281 15.07409668 C20.47329753 15.07681696 18.25418026 15.06944777 16.03515625 15.05273438 C12.63729405 15.03132745 9.24154639 15.05253325 5.84375 15.078125 C3.68749533 15.07548175 1.53124198 15.07035682 -0.625 15.0625 C-1.64174805 15.07059692 -2.65849609 15.07869385 -3.70605469 15.08703613 C-10.71420774 14.99380458 -10.71420774 14.99380458 -14.01171875 12.68554688 C-15.90510092 9.69356904 -16.02581035 8.00223852 -15.375 4.53125 C-10.97054314 -0.4978555 -6.21931987 -0.0521999 0 0 Z " fill="#F7BF45" transform="translate(755.375,422.46875)"/>
<path d="M0 0 C5.44224205 2.47374639 7.52706363 5.76878845 10 11 C10 11.99 10 12.98 10 14 C-0.23 14 -10.46 14 -21 14 C-21 8.34158416 -21 8.34158416 -18.25 5.3125 C-17.73953125 4.73113281 -17.2290625 4.14976562 -16.703125 3.55078125 C-11.80520126 -0.90902546 -6.32209354 -0.72488446 0 0 Z " fill="#F9F9F9" transform="translate(913,674)"/>
<path d="M0 0 C10.56 0 21.12 0 32 0 C32 4.25725195 31.88254997 4.66663939 29.25 7.625 C28.73953125 8.21539062 28.2290625 8.80578125 27.703125 9.4140625 C23.32649188 13.48955114 18.84008104 13.59416358 13.0546875 13.5234375 C8.04436111 12.66489052 5.18010635 9.8079735 2 6 C0 3 0 3 0 0 Z " fill="#F7C046" transform="translate(752,444)"/>
</svg>
